<?xml version="1.0" standalone="no"?>
<!DOCTYPE svg PUBLIC "-//W3C//DTD SVG 20010904//EN"
 "http://www.w3.org/TR/2001/REC-SVG-20010904/DTD/svg10.dtd">
<svg version="1.0" xmlns="http://www.w3.org/2000/svg"
 width="700.000000pt" height="700.000000pt" viewBox="0 0 700.000000 700.000000"
 preserveAspectRatio="xMidYMid meet">
<metadata>
Created by potrace 1.14, written by Peter Selinger 2001-2017
</metadata>
<g transform="translate(0.000000,700.000000) scale(0.100000,-0.100000)"
fill="#000000" stroke="none">
<path d="M3478 6566 c-1 -2 -46 -6 -98 -9 -85 -6 -248 -29 -292 -43 -9 -3 -25
-7 -35 -9 -34 -6 -168 -53 -238 -83 -429 -180 -787 -552 -950 -987 -38 -101
-87 -276 -80 -283 2 -2 0 -14 -5 -27 -5 -13 -12 -54 -16 -92 -4 -37 -8 -79 -9
-93 -2 -14 -3 -248 -4 -521 l-1 -496 -42 -12 c-124 -37 -264 -152 -325 -266
-57 -110 -65 -151 -69 -367 -1 -109 -5 -202 -8 -206 -3 -5 -126 -9 -273 -9
-297 -1 -335 -6 -424 -64 -74 -47 -136 -133 -160 -221 -17 -62 -17 -1115 1
-1178 38 -139 150 -248 286 -278 22 -5 158 -9 303 -10 146 -1 266 -3 267 -5 2
-1 4 -79 4 -172 2 -206 16 -284 71 -392 71 -142 206 -249 364 -288 65 -17 182
-18 1735 -18 916 0 1689 3 1718 6 228 30 429 218 477 447 7 33 13 139 14 237
1 97 4 179 6 181 2 2 118 4 257 4 273 0 326 5 403 43 98 47 185 165 201 270 9
65 9 1055 0 1120 -21 140 -137 269 -276 305 -28 8 -141 12 -313 13 -148 0
-270 4 -274 9 -3 5 -6 94 -8 196 -1 103 -6 203 -10 222 -22 109 -94 231 -178
305 -56 49 -163 109 -214 120 l-33 7 -1 491 c-1 488 -2 535 -13 612 -15 109
-20 137 -42 225 -106 415 -387 805 -744 1032 -179 115 -404 207 -591 243 -107
21 -148 26 -244 31 -60 3 -115 7 -122 9 -6 2 -13 2 -15 1z m242 -691 c372 -86
655 -341 775 -697 48 -145 53 -221 51 -748 l-1 -485 -1045 0 -1045 0 -1 490
c0 342 4 516 12 575 65 440 422 801 864 874 102 17 297 12 390 -9z"/>
</g>
</svg>
